# xmcd
#
# Track frame offsets:
#	150
#	6886
#	13005
#	23832
#	30566
#	34930
#	40698
#	50777
#	60850
#	65259
#	73647
#	80789
#	89217
#	94489
#	101211
#	108518
#	116606
#	122863
#	130328
#	134291
#	137518
#	142735
#	149979
#	154860
#	160048
#	163465
#	169432
#	175196
#	180481
#	185930
#	195086
#	199808
#	206359
#	213929
#	217981
#	233355
#	243289
#	254536
#	259366
#	267105
#	271371
#	276994
#	283768
#	291671
#	299461
#	307586
#	312878
#
# Disc length: 4393 seconds
#
# Revision: 0
# Processed by: cddbd v1.5.2PL0 Copyright (c) Steve Scherf et al.
# Submitted via: EasyCDDAExtractor 12.0.4.1
#
DISCID=d411272f
DTITLE=少儿艺术团 - 北京童谣
DYEAR=2002
DGENRE=Other
TTITLE0=谁跟我玩儿
TTITLE1=杨柳青放风筝
TTITLE2=好花儿还是月月红
TTITLE3=萤火虫
TTITLE4=椿树芽拌豆腐
TTITLE5=太阳和月亮
TTITLE6=什么虫儿
TTITLE7=玲珑塔
TTITLE8=大姑娘大
TTITLE9=房子里有箱子
TTITLE10=连环闷儿
TTITLE11=数瓜
TTITLE12=三个谜语
TTITLE13=猴皮筋儿我会跳
TTITLE14=小淘气儿
TTITLE15=狮子山上狮子寺
TTITLE16=高高山上一颗蒿
TTITLE17=蛤蟆谣
TTITLE18=墙上挂面鼓
TTITLE19=莲花儿灯
TTITLE20=万寿山
TTITLE21=起南来个黑大汉
TTITLE22=有时落在山腰
TTITLE23=罗锅子桥
TTITLE24=小猫上炕捏饽饽
TTITLE25=颠倒歌
TTITLE26=一点一横长
TTITLE27=小耗子儿上谷穗儿
TTITLE28=燕京八景
TTITLE29=小小子胖咕伦墩儿
TTITLE30=哥儿俩
TTITLE31=高高山上一根藤
TTITLE32=东四西单鼓楼前
TTITLE33=云彩往东
TTITLE34=我唱一谁对一
TTITLE35=一盆玫瑰两朵花
TTITLE36=清代十八省
TTITLE37=大马路宽又宽
TTITLE38=说你呆你不呆
TTITLE39=风婆婆
TTITLE40=过水面儿
TTITLE41=小秃子上庙台
TTITLE42=恭王府的墙
TTITLE43=二十四节气歌
TTITLE44=浇好水开好花
TTITLE45=扇扇子
TTITLE46=一园青菜成了精
EXTD=
EXTT0=
EXTT1=
EXTT2=
EXTT3=
EXTT4=
EXTT5=
EXTT6=
EXTT7=
EXTT8=
EXTT9=
EXTT10=
EXTT11=
EXTT12=
EXTT13=
EXTT14=
EXTT15=
EXTT16=
EXTT17=
EXTT18=
EXTT19=
EXTT20=
EXTT21=
EXTT22=
EXTT23=
EXTT24=
EXTT25=
EXTT26=
EXTT27=
EXTT28=
EXTT29=
EXTT30=
EXTT31=
EXTT32=
EXTT33=
EXTT34=
EXTT35=
EXTT36=
EXTT37=
EXTT38=
EXTT39=
EXTT40=
EXTT41=
EXTT42=
EXTT43=
EXTT44=
EXTT45=
EXTT46=
PLAYORDER=
